<?xml version="1.0" encoding="utf-8"?>
<!-- Generator: Adobe Illustrator 26.0.1, SVG Export Plug-In . SVG Version: 6.00 Build 0)  -->
<svg version="1.1" id="Layer_1" xmlns="http://www.w3.org/2000/svg" xmlns:xlink="http://www.w3.org/1999/xlink" x="0px" y="0px"
	 viewBox="0 0 240 234" style="enable-background:new 0 0 240 234;" xml:space="preserve">
<style type="text/css">
	.st0{fill:#330000;}
	.st1{fill:#FF9A00;}
	.st2{font-family:'Nunito-Bold';}
	.st3{font-size:129.8539px;}
</style>
<g>
	<g id="vlpa">
		<g id="vlpb">
			<g id="vlpc">
				<g id="vlpd">
					<path class="st0" d="M-108.1-34.9H93.2c30.5,0,55.2,24.7,55.2,55.2v193.5c0,30.5-24.7,55.2-55.2,55.2h-201.3
						c-30.5,0-55.2-24.7-55.2-55.2V20.3C-163.3-10.3-138.6-34.9-108.1-34.9z"/>
				</g>
			</g>
		</g>
		<g id="vlpe">
			<g id="vlpf">
				<path class="st1" d="M-12.7,146.9H-61l-9.9,30.5c-0.3,1.2-1.3,1.9-2.5,1.8h-24.4c-1.4,0-1.8-0.8-1.4-2.3l41.8-120.4
					c0.4-1.3,0.8-2.7,1.3-4.3c0.5-2.7,0.8-5.6,0.8-8.4c-0.1-0.6,0.4-1.3,1-1.4h0.4h33.2c1,0,1.6,0.4,1.7,1l47.4,133.7
					c0.4,1.4,0,2.1-1.3,2.1H0.1c-0.9,0.1-1.8-0.5-2.1-1.4L-12.7,146.9L-12.7,146.9z M-53.4,120.5h33c-0.8-2.7-1.8-6-3-9.3
					c-1.2-3.5-2.3-7.3-3.5-11.2c-1.3-4-2.5-7.9-3.8-11.9c-1.3-4-2.5-7.8-3.5-11.6c-1-3.6-1.9-7-2.9-10.1h-0.3
					c-1.2,5.6-2.6,11.2-4.4,16.8c-1.9,6.2-3.9,12.7-6,19.2C-49.5,108.9-51.5,115.1-53.4,120.5z"/>
				<path class="st1" d="M57.5,65.1c-4.3,0.1-8.4-1.6-11.6-4.5c-3-3.2-4.5-7.5-4.4-11.9C41.4,44.2,43,40,46.2,37s7.3-4.5,11.6-4.5
					c5.1,0,9,1.6,11.8,4.5c2.9,3.1,4.4,7.3,4.3,11.6c0.1,4.4-1.4,8.7-4.5,11.9C66.3,63.6,61.9,65.3,57.5,65.1L57.5,65.1z
					 M42.9,177.8v-100c0-1.3,0.5-1.8,1.7-1.8h25.7c1.2,0,1.7,0.6,1.7,1.8v100c0,1.4-0.5,2.1-1.7,2.1H44.9
					C43.6,179.8,42.9,179.1,42.9,177.8z"/>
			</g>
		</g>
	</g>
	<text transform="matrix(1 0 0 1 221.6357 154.2998)" class="st1 st2 st3">Adobe Illustrator</text>
</g>
</svg>
