<?xml version="1.0" encoding="utf-8"?>
<!-- Generator: Adobe Illustrator 26.0.1, SVG Export Plug-In . SVG Version: 6.00 Build 0)  -->
<svg version="1.1" id="Layer_1" xmlns="http://www.w3.org/2000/svg" xmlns:xlink="http://www.w3.org/1999/xlink" x="0px" y="0px"
	 viewBox="0 0 240 234" style="enable-background:new 0 0 240 234;" xml:space="preserve">
<style type="text/css">
	.st0{fill:#330000;}
	.st1{fill:#FF9A00;}
	.st2{font-family:'Nunito-Bold';}
	.st3{font-size:170.9166px;}
</style>
<g>
	<g id="vlpa">
		<g id="vlpb">
			<g id="vlpc">
				<g id="vlpd">
					<path class="st0" d="M-315.2-82.9h265c40.1,0,72.7,32.5,72.7,72.7v254.7c0,40.1-32.5,72.7-72.7,72.7h-265
						c-40.1,0-72.7-32.5-72.7-72.7V-10.3C-387.9-50.6-355.4-82.9-315.2-82.9z"/>
				</g>
			</g>
		</g>
		<g id="vlpe">
			<g id="vlpf">
				<path class="st1" d="M-189.7,156.3h-63.6l-13,40.1c-0.4,1.6-1.7,2.5-3.3,2.4h-32.1c-1.8,0-2.4-1.1-1.8-3l55-158.5
					c0.5-1.7,1.1-3.6,1.7-5.7c0.7-3.6,1.1-7.4,1.1-11.1c-0.1-0.8,0.5-1.7,1.3-1.8h0.5h43.7c1.3,0,2.1,0.5,2.2,1.3l62.4,176
					c0.5,1.8,0,2.8-1.7,2.8h-35.5c-1.2,0.1-2.4-0.7-2.8-1.8L-189.7,156.3L-189.7,156.3z M-243.2,121.6h43.4
					c-1.1-3.6-2.4-7.9-3.9-12.2c-1.6-4.6-3-9.6-4.6-14.7c-1.7-5.3-3.3-10.4-5-15.7s-3.3-10.3-4.6-15.3c-1.3-4.7-2.5-9.2-3.8-13.3
					h-0.4c-1.6,7.4-3.4,14.7-5.8,22.1c-2.5,8.2-5.1,16.7-7.9,25.3C-238.1,106.3-240.7,114.5-243.2,121.6z"/>
				<path class="st1" d="M-97.3,48.7c-5.7,0.1-11.1-2.1-15.3-5.9c-3.9-4.2-5.9-9.9-5.8-15.7c-0.1-5.9,2-11.5,6.2-15.4
					c4.2-3.9,9.6-5.9,15.3-5.9c6.7,0,11.8,2.1,15.5,5.9c3.8,4.1,5.8,9.6,5.7,15.3c0.1,5.8-1.8,11.5-5.9,15.7
					C-85.7,46.7-91.5,48.9-97.3,48.7L-97.3,48.7z M-116.5,197V65.4c0-1.7,0.7-2.4,2.2-2.4h33.8c1.6,0,2.2,0.8,2.2,2.4V197
					c0,1.8-0.7,2.8-2.2,2.8h-33.4C-115.6,199.6-116.5,198.7-116.5,197z"/>
			</g>
		</g>
	</g>
	<text transform="matrix(1 0 0 1 123.3335 166.0791)" class="st1 st2 st3">Adobe Illustrator</text>
</g>
</svg>
