<?xml version="1.0" encoding="utf-8"?>
<!-- Generator: Adobe Illustrator 26.0.1, SVG Export Plug-In . SVG Version: 6.00 Build 0)  -->
<svg version="1.1" id="Layer_1" xmlns="http://www.w3.org/2000/svg" xmlns:xlink="http://www.w3.org/1999/xlink" x="0px" y="0px"
	 viewBox="0 0 240 234" style="enable-background:new 0 0 240 234;" xml:space="preserve">
<style type="text/css">
	.st0{fill:#00005B;}
	.st1{fill:#9999FF;}
</style>
<g id="vlpa">
	<g id="vlpb">
		<g id="vlpc">
			<g id="vlpd">
				<path class="st0" d="M-12.5-83h265c40.2,0,72.6,32.5,72.6,72.6v254.7c0,40.2-32.5,72.6-72.6,72.6h-265
					c-40.2,0-72.6-32.5-72.6-72.6V-10.4C-85.1-50.5-52.6-83-12.5-83z"/>
			</g>
		</g>
	</g>
	<g id="vlpe">
		<g id="vlpf">
			<path class="st1" d="M12.3,197.3V21.3c0-1.2,0.5-1.9,1.7-1.9c2.9,0,5.6,0,9.6-0.2c4.1-0.2,8.4-0.2,13-0.3s9.6-0.2,14.9-0.3
				s10.4-0.2,15.6-0.2c14,0,25.6,1.7,35.2,5.3c8.5,2.9,16.4,7.7,22.9,14c5.5,5.5,9.7,12.1,12.5,19.5c2.6,7.2,3.9,14.5,3.9,22.2
				c0,14.7-3.4,26.8-10.3,36.4c-6.8,9.6-16.4,16.8-27.5,20.9c-11.6,4.3-24.4,5.8-38.5,5.8c-4.1,0-6.8,0-8.5-0.2
				c-1.7-0.2-4.1-0.2-7.4-0.2V197c0.2,1.2-0.7,2.2-1.9,2.4h-0.7H14.4c-1.4,0-2.1-0.7-2.1-2.2L12.3,197.3z M49.6,52.6V110
				c2.4,0.2,4.6,0.3,6.7,0.3h9.1c6.7,0,13.3-1,19.7-3.1c5.5-1.5,10.3-4.8,14-9.1c3.6-4.3,5.3-10.1,5.3-17.6
				c0.2-5.3-1.2-10.6-3.9-15.2c-2.9-4.4-7-7.9-12-9.7c-6.3-2.6-13.2-3.6-20.2-3.4c-4.4,0-8.4,0-11.6,0.2
				C53.2,52.2,50.8,52.4,49.6,52.6L49.6,52.6z"/>
			<path class="st1" d="M166.2,62.6h29.9c1.7,0,3.1,1.2,3.6,2.7c0.5,1.4,0.9,2.7,1,4.3c0.3,1.7,0.7,3.6,0.9,5.3
				c0.2,1.9,0.3,3.9,0.3,6.2c5.1-6,11.3-10.9,18.3-14.7c7.9-4.4,16.9-6.7,26-6.7c1.2-0.2,2.2,0.7,2.4,1.9v0.7v33.3
				c0,1.4-0.9,1.9-2.7,1.9c-6.2-0.2-12.5,0.3-18.5,1.7c-5,1-9.7,2.6-14.4,4.6c-3.2,1.5-6.3,3.6-8.7,6.3v87.2c0,1.7-0.7,2.4-2.2,2.4
				h-33.7c-1.4,0.2-2.6-0.7-2.7-2.1V197v-94.7c0-4.1,0-8.4-0.2-12.8c-0.2-4.4-0.2-8.9-0.3-13.3c0-3.9-0.3-7.7-0.7-11.6
				c-0.2-0.9,0.3-1.7,1.2-1.9C165.6,62.5,166,62.5,166.2,62.6L166.2,62.6z"/>
		</g>
	</g>
</g>
<rect x="426.1" y="55.2" style="fill:none;" width="1602.2" height="123.6"/>
<text transform="matrix(1 0 0 1 426.093 177.0777)" class="st1" style="font-family:'Nunito-Bold'; font-size:170.9166px;">Adobe Premiere </text>
</svg>
