<?xml version="1.0" encoding="utf-8"?>
<!-- Generator: Adobe Illustrator 26.0.1, SVG Export Plug-In . SVG Version: 6.00 Build 0)  -->
<svg version="1.1" id="Layer_1" xmlns="http://www.w3.org/2000/svg" xmlns:xlink="http://www.w3.org/1999/xlink" x="0px" y="0px"
	 viewBox="0 0 512 408" style="enable-background:new 0 0 512 408;" xml:space="preserve">
<style type="text/css">
	.st0{fill:url(#SVGID_1_);}
	.st1{fill:url(#SVGID_00000072253979523280274540000016233687666737046171_);stroke:#FFFFFF;}
	.st2{fill:#FFFFFF;}
</style>
<linearGradient id="SVGID_1_" gradientUnits="userSpaceOnUse" x1="51.5529" y1="368.3049" x2="498.9538" y2="13.1579" gradientTransform="matrix(1 0 0 -1 0 410)">
	<stop  offset="0" style="stop-color:#9013FE"/>
	<stop  offset="1" style="stop-color:#6610F2"/>
</linearGradient>
<path class="st0" d="M56.5,53.3C55.5,25.6,77.1,0,106.3,0h299.4c29.2,0,50.8,25.6,49.9,53.3c-0.9,26.6,0.3,61.2,9,89.3
	c8.7,28.2,23.4,46.1,47.5,48.4v26c-24.1,2.3-38.8,20.1-47.5,48.4c-8.7,28.1-9.9,62.7-9,89.3c1,27.7-20.6,53.3-49.9,53.3H106.3
	c-29.2,0-50.8-25.6-49.9-53.3c0.9-26.6-0.3-61.2-9-89.3C38.8,237.1,24.1,219.3,0,217v-26c24.1-2.3,38.8-20.1,47.5-48.4
	C56.2,114.5,57.4,80,56.5,53.3z"/>
<linearGradient id="SVGID_00000081642657263731439870000010250643051756611722_" gradientUnits="userSpaceOnUse" x1="189.147" y1="297.6814" x2="289.153" y2="128.5494" gradientTransform="matrix(1 0 0 -1 0 410)">
	<stop  offset="0" style="stop-color:#FFFFFF"/>
	<stop  offset="1" style="stop-color:#F1E5FC"/>
</linearGradient>
<path style="fill:url(#SVGID_00000081642657263731439870000010250643051756611722_);stroke:#FFFFFF;" d="M267.1,312.5
	c47.3,0,75.8-23.2,75.8-61.4c0-28.9-20.3-49.8-50.5-53.1v-1.2c22.2-3.6,39.6-24.2,39.6-47.2c0-32.8-25.9-54.1-65.3-54.1h-88.7v217
	H267.1z M212.4,123h45.9c25,0,39.1,11.1,39.1,31.3c0,21.5-16.5,33.5-46.4,33.5h-38.7C212.4,187.8,212.4,123,212.4,123z M212.4,284.9
	v-71.4H258c32.7,0,49.6,12,49.6,35.5c0,23.5-16.5,35.9-47.6,35.9H212.4z"/>
<g>
	<path class="st2" d="M646.3,244V136.6h40.3c8.2,0,14.8,1.1,19.7,3.3c5,2.2,8.8,5.5,11.6,10c2.8,4.5,4.2,9.2,4.2,14.2
		c0,4.6-1.2,8.9-3.7,13c-2.5,4.1-6.3,7.3-11.3,9.8c6.5,1.9,11.5,5.2,15,9.7c3.5,4.6,5.2,10,5.2,16.3c0,5-1.1,9.7-3.2,14
		c-2.1,4.3-4.7,7.7-7.9,10c-3.1,2.3-7,4.1-11.8,5.3c-4.7,1.2-10.5,1.8-17.3,1.8H646.3z M660.5,181.8h23.2c6.3,0,10.8-0.4,13.5-1.2
		c3.6-1.1,6.3-2.9,8.2-5.3c1.8-2.5,2.7-5.6,2.7-9.4c0-3.6-0.9-6.7-2.6-9.4c-1.7-2.7-4.2-4.6-7.3-5.6c-3.2-1-8.6-1.5-16.3-1.5h-21.5
		V181.8z M660.5,231.3h26.7c4.6,0,7.8-0.2,9.7-0.5c3.3-0.6,6-1.6,8.2-2.9c2.2-1.4,4-3.4,5.4-6c1.4-2.6,2.1-5.6,2.1-9
		c0-4-1-7.5-3.1-10.4c-2.1-3-4.9-5-8.5-6.2c-3.6-1.2-8.9-1.8-15.7-1.8h-24.8V231.3z"/>
	<path class="st2" d="M747.8,205.1c0-14.4,4-25.1,12-32c6.7-5.8,14.8-8.6,24.5-8.6c10.7,0,19.4,3.5,26.2,10.5
		c6.8,7,10.2,16.7,10.2,29c0,10-1.5,17.9-4.5,23.6c-3,5.7-7.4,10.2-13.1,13.4c-5.7,3.2-12,4.8-18.8,4.8c-10.9,0-19.7-3.5-26.4-10.5
		S747.8,218.3,747.8,205.1z M761.4,205.1c0,10,2.2,17.4,6.5,22.4c4.3,5,9.8,7.4,16.4,7.4c6.5,0,12-2.5,16.3-7.5
		c4.3-5,6.5-12.6,6.5-22.8c0-9.6-2.2-16.9-6.6-21.9c-4.4-5-9.8-7.4-16.3-7.4c-6.6,0-12.1,2.5-16.4,7.4
		C763.5,187.7,761.4,195.2,761.4,205.1z"/>
	<path class="st2" d="M838.7,205.1c0-14.4,4-25.1,12-32c6.7-5.8,14.8-8.6,24.5-8.6c10.7,0,19.4,3.5,26.2,10.5
		c6.8,7,10.2,16.7,10.2,29c0,10-1.5,17.9-4.5,23.6c-3,5.7-7.4,10.2-13.1,13.4c-5.7,3.2-12,4.8-18.8,4.8c-10.9,0-19.7-3.5-26.4-10.5
		S838.7,218.3,838.7,205.1z M852.3,205.1c0,10,2.2,17.4,6.5,22.4c4.3,5,9.8,7.4,16.4,7.4c6.5,0,12-2.5,16.3-7.5
		c4.3-5,6.5-12.6,6.5-22.8c0-9.6-2.2-16.9-6.6-21.9c-4.4-5-9.8-7.4-16.3-7.4c-6.6,0-12.1,2.5-16.4,7.4
		C854.5,187.7,852.3,195.2,852.3,205.1z"/>
	<path class="st2" d="M963.4,232.2l1.9,11.6c-3.7,0.8-7,1.2-10,1.2c-4.8,0-8.5-0.8-11.1-2.3c-2.6-1.5-4.5-3.5-5.6-6
		c-1.1-2.5-1.6-7.7-1.6-15.6v-44.8h-9.7v-10.3h9.7V147l13.1-7.9v27.2h13.3v10.3h-13.3V222c0,3.8,0.2,6.2,0.7,7.2
		c0.5,1.1,1.2,1.9,2.3,2.6s2.6,1,4.5,1C959,232.7,961,232.6,963.4,232.2z"/>
	<path class="st2" d="M978.5,220.8l13-2.1c0.7,5.2,2.8,9.2,6.1,12c3.3,2.8,8,4.2,14,4.2c6.1,0,10.5-1.2,13.5-3.7
		c2.9-2.5,4.4-5.4,4.4-8.7c0-3-1.3-5.3-3.9-7c-1.8-1.2-6.3-2.7-13.5-4.5c-9.7-2.4-16.4-4.6-20.1-6.3c-3.7-1.8-6.6-4.2-8.5-7.4
		c-1.9-3.1-2.9-6.6-2.9-10.4c0-3.5,0.8-6.7,2.4-9.6c1.6-3,3.7-5.4,6.5-7.4c2.1-1.5,4.8-2.8,8.4-3.8c3.5-1,7.3-1.6,11.4-1.6
		c6.1,0,11.5,0.9,16.1,2.6c4.6,1.8,8,4.1,10.2,7.1s3.7,7,4.5,12l-12.9,1.8c-0.6-4-2.3-7.1-5.1-9.4c-2.8-2.2-6.8-3.4-11.9-3.4
		c-6.1,0-10.4,1-13,3c-2.6,2-3.9,4.3-3.9,7c0,1.7,0.5,3.2,1.6,4.6c1.1,1.4,2.8,2.6,5.1,3.5c1.3,0.5,5.2,1.6,11.6,3.4
		c9.3,2.5,15.8,4.5,19.5,6.1c3.7,1.6,6.6,3.9,8.7,6.9c2.1,3,3.1,6.8,3.1,11.3c0,4.4-1.3,8.5-3.8,12.4c-2.6,3.9-6.3,6.9-11.1,9
		s-10.3,3.2-16.4,3.2c-10.1,0-17.8-2.1-23.1-6.3C983.3,235.3,979.9,229,978.5,220.8z"/>
	<path class="st2" d="M1095,232.2l1.9,11.6c-3.7,0.8-7,1.2-10,1.2c-4.8,0-8.5-0.8-11.1-2.3c-2.6-1.5-4.5-3.5-5.6-6
		c-1.1-2.5-1.6-7.7-1.6-15.6v-44.8h-9.7v-10.3h9.7V147l13.1-7.9v27.2h13.3v10.3h-13.3V222c0,3.8,0.2,6.2,0.7,7.2
		c0.5,1.1,1.2,1.9,2.3,2.6s2.6,1,4.5,1C1090.7,232.7,1092.6,232.6,1095,232.2z"/>
	<path class="st2" d="M1115.3,244v-77.8h11.9V178c3-5.5,5.8-9.2,8.4-10.9c2.6-1.8,5.4-2.6,8.5-2.6c4.4,0,9,1.4,13.5,4.2l-4.5,12.2
		c-3.2-1.9-6.4-2.9-9.7-2.9c-2.9,0-5.5,0.9-7.8,2.6c-2.3,1.7-3.9,4.1-4.9,7.2c-1.5,4.7-2.2,9.8-2.2,15.4V244H1115.3z"/>
	<path class="st2" d="M1223.6,234.4c-4.9,4.2-9.6,7.1-14.1,8.8c-4.5,1.7-9.4,2.6-14.5,2.6c-8.5,0-15.1-2.1-19.7-6.3
		c-4.6-4.2-6.9-9.5-6.9-16c0-3.8,0.9-7.3,2.6-10.4s4-5.7,6.8-7.6c2.8-1.9,6-3.3,9.5-4.3c2.6-0.7,6.5-1.3,11.7-2
		c10.6-1.3,18.5-2.8,23.5-4.5c0-1.8,0.1-3,0.1-3.4c0-5.4-1.2-9.2-3.7-11.4c-3.4-3-8.4-4.5-15-4.5c-6.2,0-10.8,1.1-13.7,3.3
		c-3,2.2-5.1,6-6.6,11.5l-12.9-1.8c1.2-5.5,3.1-10,5.8-13.4c2.7-3.4,6.6-6,11.6-7.8c5.1-1.8,11-2.7,17.7-2.7c6.6,0,12,0.8,16.2,2.3
		c4.1,1.6,7.2,3.5,9.2,5.9c2,2.4,3.3,5.4,4.1,9c0.4,2.2,0.7,6.3,0.7,12.2v17.6c0,12.3,0.3,20,0.8,23.3c0.6,3.2,1.7,6.4,3.3,9.3
		h-13.8C1224.9,241.3,1224,238.1,1223.6,234.4z M1222.5,205c-4.8,2-12,3.6-21.5,5c-5.4,0.8-9.3,1.7-11.5,2.6c-2.2,1-4,2.4-5.2,4.3
		c-1.2,1.9-1.8,4-1.8,6.3c0,3.5,1.3,6.4,4,8.8c2.7,2.3,6.6,3.5,11.7,3.5c5.1,0,9.6-1.1,13.5-3.3c4-2.2,6.9-5.3,8.7-9.1
		c1.4-3,2.1-7.4,2.1-13.2V205z"/>
	<path class="st2" d="M1263.8,273.8V166.2h12v10.1c2.8-4,6-6.9,9.6-8.9c3.6-2,7.9-3,13-3c6.6,0,12.5,1.7,17.6,5.1
		c5.1,3.4,8.9,8.2,11.5,14.5c2.6,6.2,3.9,13,3.9,20.5c0,8-1.4,15.1-4.3,21.5c-2.9,6.4-7,11.3-12.5,14.6c-5.4,3.4-11.2,5.1-17.2,5.1
		c-4.4,0-8.3-0.9-11.8-2.8c-3.5-1.9-6.4-4.2-8.6-7v37.9H1263.8z M1275.7,205.6c0,10,2,17.4,6.1,22.2c4.1,4.8,9,7.2,14.7,7.2
		c5.9,0,10.9-2.5,15.1-7.4c4.2-5,6.3-12.6,6.3-23c0-9.9-2-17.3-6.1-22.3c-4.1-4.9-8.9-7.4-14.6-7.4c-5.6,0-10.6,2.6-14.9,7.9
		C1277.9,187.9,1275.7,195.5,1275.7,205.6z"/>
</g>
</svg>
