<?xml version="1.0" encoding="utf-8"?>
<!-- Generator: Adobe Illustrator 26.0.1, SVG Export Plug-In . SVG Version: 6.00 Build 0)  -->
<svg version="1.1" id="Layer_1" xmlns="http://www.w3.org/2000/svg" xmlns:xlink="http://www.w3.org/1999/xlink" x="0px" y="0px"
	 viewBox="0 0 1080 1080" style="enable-background:new 0 0 1080 1080;" xml:space="preserve">
<style type="text/css">
	.st0{display:none;fill:#0F0101;}
	.st1{display:none;fill:#707070;}
	.st2{display:none;}
	.st3{display:inline;fill:#FEFEFE;}
	.st4{display:inline;fill:#C80502;}
	.st5{display:inline;fill:#F7F7F7;}
	.st6{display:inline;fill:#EDEDED;}
	.st7{fill:#C80502;}
</style>
<rect x="-62.7" y="238.1" class="st0" width="1339.7" height="727.7"/>
<path class="st1" d="M539.9,799.9c-172.1,0-344.3,0-516.4,0.1c-3.9,0-4.5-1.1-4.5-4.7c0.1-170.3,0.1-340.5,0-510.8
	c0-3.9,1.1-4.5,4.7-4.5c344.1,0.1,688.2,0.1,1032.3,0c4.4,0,5,1.2,5,5.2c-0.1,170.1-0.1,340.2,0,510.3c0,3.9-1.1,4.5-4.7,4.5
	C884.2,799.9,712,799.9,539.9,799.9z"/>
<g class="st2">
	<path class="st3" d="M-563.6,494c-8.5,65.8-31.7,229.5-33.4,239.8c-0.3,1.8-1.2,3.6-2.3,3.6c-21.6,0.2-56.6-0.2-63.2-0.2
		c-10,0-13.8-2.8-12.2-13.9c17.5-115.4,34.5-230.8,51.7-346.2c3.2-21.2,12.9-29.9,34.2-30.4c13.3-0.3,26.6-0.4,39.9,0
		c18.2,0.5,28.5,8,33.1,25.5c19,72.1,37.5,144.4,56.2,217c4.5-16.1,43.5-152.1,59.2-210.2c7-26.1,15.3-32.4,42.2-32.5
		c10.9,0,21.9-0.3,32.8,0c20.9,0.6,30.7,8.5,33.8,29c12.2,82.1,24.1,164.3,36,246.4c5.1,34.7,9.5,69.6,15.2,104.2
		c1.5,9-1,10.2-8.9,10.1c-20.4-0.5-40.9-0.7-61.3,0.1c-9.2,0.3-12.2-2.7-13.3-11.6c-9.4-74.4-32.3-226.8-33.1-232.8
		c-16.6,54.4-62.6,197.3-62.6,197.3l-81.7-0.2C-501.4,689.2-562.9,495.7-563.6,494z"/>
	<path class="st3" d="M605.6,542.3c0,23.8-0.5,47.5,0.2,71.2c0.6,21.3,8.8,39.9,29.5,48.1c22.8,9.1,46.6,9.7,67.9-5.4
		c12.1-8.5,21.7-38.7,17.9-51.9c-1.5-5.3-5.7-4-9.2-4.1c-11.9-0.1-23.8-0.5-35.6,0.1c-8.3,0.5-9.3-2.8-7.9-9.8
		c3.2-16.8,6.2-33.6,8.8-50.4c1-6.1,4-7.5,9.7-7.5c36.6,0.2,73.2,0.1,109.8,0.1c4.7,0,8.5,0.1,8.3,6.5c-0.9,34.6,2.7,69.5-3.7,103.8
		c-9.3,50.1-39.7,80.3-89.3,91.3c-36.5,8.1-72.8,7.1-108.3-4.1c-48.8-15.4-75.8-50.4-79.9-100.1c-4.9-59.2-4.2-118.7-0.2-177.9
		c3.5-51.3,36.7-89.5,86.5-102.6c36-9.5,72.4-9.6,108.5-0.2c48.4,12.6,75.9,47.8,81.6,102.7c3,29.3,3,29.3-26.1,29.3
		c-15.7,0-31.4-0.3-47,0.1c-7.4,0.2-10.5-2.2-9.7-9.8c0.4-3.7,0-7.6-0.3-11.4c-2.3-28.2-15.4-41.8-43.5-45.2
		c-40.5-4.9-66.4,16.7-67.7,57.2C605,495.7,605.6,519,605.6,542.3C605.6,542.3,605.6,542.3,605.6,542.3z"/>
	<path class="st4" d="M1320.2,736.2c-38.5,0-77,0-115.4,0c-5.8,0-11.4,0.9-11.1-8.2c1.2-29.9-1.6-59.8,1.9-89.6
		c4.7-40.7,26.5-69,62.3-87.5c27.7-14.3,57.9-23.8,83.4-42.3c23.2-16.9,30.8-38.7,23.3-66.2c-4.6-17.1-14.8-28.5-32.8-31.2
		c-20.7-3.1-38.1,5-47.7,21c-8.2,13.6-9.5,28.7-9.9,43.9c-0.2,7.6-2.8,9.5-10.1,9.4c-21.8-0.5-43.7-0.2-65.6-0.1
		c-5.1,0-9.2,0.1-9.2-7.1c0-41.1,7.6-79.2,40.1-108.3c10.8-9.7,23.4-16.4,36.9-20.6c33.3-10.5,67.4-12.2,101.3-4.5
		c62.3,14.2,97.4,70.9,86.7,136.6c-7.2,44.3-34.1,72.9-72,92.9c-22.2,11.7-45.4,21.3-67.6,32.9c-18.8,9.8-32.8,23.9-34.7,46.9
		c-0.8,9.9,1.8,13.1,12.1,13c51.3-0.5,102.6-0.1,153.9-0.4c8.7,0,13.1,0.3,10.2,11.4c-3.8,14.6-5.9,29.8-7.7,44.8
		c-1.2,10.3-5.1,13.8-16,13.6C1395.2,735.7,1357.7,736.2,1320.2,736.2z"/>
	<path class="st4" d="M1617.4,736.2c-37.5,0-75-0.3-112.6,0.2c-9.4,0.1-13.6-1.4-12.9-12.1c1.8-31.2-2.5-62.6,2.8-93.8
		c6.4-37.6,28.5-63,61.7-80c25.7-13.2,53.3-22.4,77.6-38.4c17-11.2,29.2-25.1,31.1-46.6c3.6-40.2-27-65.7-62.6-51.3
		c-22.1,8.9-27.3,28.8-29.8,49.5c-2.6,21.4-2.1,21.5-23.6,21.5c-17.6,0-35.1,0-52.7,0c-4.7,0-9.6,0.9-9.5-6.7
		c0.6-39.9,7.3-77.4,38.1-106.5c11.3-10.7,24.5-18.1,39-22.7c33.2-10.6,67.3-12.3,101.2-4.7c58.4,13,92.6,62.6,88.6,123.2
		c-3.5,52.2-32.6,85.3-76.4,108.1c-21.4,11.1-43.7,20.4-65.1,31.5c-18.4,9.6-32,23.5-34.2,45.8c-0.9,9.4,0.1,14.1,12.2,13.9
		c51.3-0.9,102.6-0.1,153.9-0.6c10.1-0.1,12.2,2.9,10.3,12.1c-3.1,15.3-6,30.7-8.1,46.2c-1.2,8.7-4.2,11.8-13.5,11.6
		C1694.3,735.9,1655.9,736.2,1617.4,736.2z"/>
	<path class="st3" d="M834.3,658.9c0-19.5-0.1-38.9,0-58.4c0.3-47.6,21-68.1,69-68.5c21.8-0.2,43.7,0.3,65.5-0.5
		c33-1.3,47.2-15.5,49.6-48.2c0.3-4.2,0.4-8.5,0.2-12.8c-1.6-36.6-15.8-51.1-52.7-52.8c-15.6-0.7-35.6-5.7-45.7,1.9
		c-9.7,7.2-2.4,28.4-2.9,43.4c-0.6,18.7-0.2,18.7-18.9,18.7c-18.5,0-37.1-0.2-55.6,0.1c-6.8,0.1-9-1.9-8.9-8.9
		c0.3-38.9,0.2-77.9,0-116.8c0-6.2,0.8-9.7,8.4-9.5c55,1.5,110.2-3.5,165,5.2c56.3,8.9,90.4,46,94.1,102.7c1.6,24.2,1.5,48.3-5.3,72
		c-9.7,34-32.4,54.7-65.5,65c-29.9,9.3-60.6,10.2-91.6,10.1c-17.1-0.1-21.8,4.6-21.9,21.9c-0.2,33.7-0.4,67.4,0.2,101.2
		c0.2,9.3-2.4,12.3-11.9,11.9c-20.4-0.7-40.9-0.6-61.3,0c-8.3,0.2-10.5-2.6-10.3-10.6C834.6,703.5,834.3,681.2,834.3,658.9z"/>
	<path class="st3" d="M84.3,589.5c0-34.4-0.4-62.4,0.2-90.4c0.2-9.4-1.5-13.5-12.1-13.1c-11.1,0.4-26,5.4-32.4-2.3
		c-5.4-6.5-1.7-20.8-1.8-31.6c-0.1-19.9,0-19.9,20.3-19.9c25.8,0,25.8,0,25.8-25.6c0-11.9,0.5-23.8-0.2-35.6
		c-0.4-8.4,2.9-10.4,10.8-10.2c19.5,0.5,38.9,0.7,58.4-0.1c9.4-0.4,11,3.3,10.7,11.5c-0.5,17.1,0.1,34.2-0.3,51.2
		c-0.2,6.8,2,9.1,8.8,8.9c15.2-0.4,30.4,0.2,45.6-0.3c7.2-0.2,9.6,2.1,7.4,8.9c-0.3,0.9-0.6,1.8-0.9,2.7
		c-3.4,13.8-2.7,31.5-11.2,40.2c-8.2,8.3-26.1,2.4-39.8,2.2c-8.6-0.1-10.1,3.1-10,10.8c0.3,50.3,0,100.6,0.2,150.9
		c0.1,22.5,5.7,27.3,27.9,27.8c11.1,0.3,26.2-5.5,32,2.9c4.4,6.4-2.1,20.6-4.1,31.2c-5.8,29.9-5.9,30-36,29.8
		c-16.6-0.1-33.2,1.1-49.6-2.8c-28.4-6.8-44-23.6-47.9-52.7C81.9,650.4,85.8,616.7,84.3,589.5z"/>
	<path class="st5" d="M1169.3,368.6c-5.7,5.3-0.7,18.3-11.5,18.5c-11.3,0.2-5.8-13.3-12.5-18.8c-1,6-2,11.6-2.8,17.3
		c-0.5,3.3-0.7,6.7-5.5,6.5c-5.5-0.2-4.2-4.1-3.8-7.1c1.5-10.8,3.4-21.5,5-32.2c0.6-3.7,1.8-6.1,6.1-6.4c4.1-0.2,6.3,1.8,7.3,5.3
		c1.8,6.3,3.5,12.7,5.3,19.7c5.5-5.8,5.1-13.2,7.3-19.6c1.3-3.9,3.5-5.2,7.2-5.4c4.2-0.2,6.1,2.6,6.7,6c1.8,11.2,3,22.5,4.8,33.7
		c0.5,3.4,0.3,5.6-3.6,5.9c-3,0.2-5.8-0.3-6.1-4.1C1172.6,381.4,1172.2,374.8,1169.3,368.6z"/>
	<path class="st6" d="M1130.4,353.9c0.4-2.3,0.4-1.5,0.2-1.4c-17.6,5.1-7.6,19.6-10,29.8c-1,4.2,1.6,10.5-6.2,9.9
		c-6.9-0.6-3.8-6.4-4-10c-0.5-6.6-0.1-13.2-0.2-19.9c-0.1-3.5,1.2-8-5.1-7.6c-3.4,0.2-7,0.2-6.1-5c0.7-4,4-3.2,6.7-3.2
		c6.6-0.1,13.3,0,19.9,0C1128.7,346.5,1131.4,347,1130.4,353.9z"/>
	<path class="st3" d="M490.8,584.8c0.1,0,0.1,0,0.2,0c0-17.1,0.2-34.2,0-51.3c-0.7-52.5-28.8-88.7-79.1-100.7
		c-23.2-5.6-47-5.9-70.6-1.9c-56,9.5-86.4,40.4-89.9,96.7c-2.5,40.7-3.4,81.7,0.9,122.3c4.2,39.6,25.7,67.6,63.9,81
		c26.9,9.4,54.7,10.8,82.8,6.4c56.1-8.8,86.5-39.8,91.5-95.5C492.3,622.9,490.8,603.8,490.8,584.8z M409.2,645.1
		c-4,21.7-15.7,31.4-38.6,31.2c-23.1-0.1-36.3-9.7-38.2-31.4c-3.6-40.7-3.4-81.6-0.2-122.3c1.6-20,15.9-30.9,37.2-31.3
		c22.5-0.5,35.8,9.8,39.8,30.2c2,10.3,2.1,20.8,2,31.2c-0.1,10,0,20,0,33.1C410.2,603.4,413,624.3,409.2,645.1z"/>
	<path class="st3" d="M24.4,584.3c-0.1,0-0.3,0-0.4,0c0-19.9,1-39.9-0.2-59.8C21.1,477.9-5.7,446-50.8,434
		c-25.2-6.7-50.6-7-76.2-2.8c-51.2,8.6-81.9,37.4-87.2,88.5c-4.4,42.8-3.9,86.4,0,129.3c3.9,42.8,28.6,71.4,69.9,83.9
		c29.1,8.8,59,9.2,88.7,2.3c51.2-11.9,79.2-47.2,79.8-99.7C24.5,618.5,24.4,601.4,24.4,584.3z M-56.3,638.3
		c-2.2,33-30.1,48.2-60.3,33.9c-9.5-4.5-13.9-12.3-16.4-21.8c-4.4-16.8-2.9-34-2.7-51c0.3-25.1-2.3-50.4,1.6-75.3
		c3.7-23.8,16.6-33.5,41.6-32.5c21.7,0.8,34.7,12.9,36.2,35.8c1.2,18.4,0.2,37,0.2,55.5C-56,601.3-55,619.8-56.3,638.3z"/>
</g>
<g id="Black">
	<path d="M-563.6,493.9c-8.5,65.8-31.7,229.5-33.4,239.8c-0.3,1.8-1.2,3.6-2.3,3.6c-21.6,0.2-56.6-0.2-63.2-0.2
		c-10,0-13.8-2.8-12.2-13.9c17.5-115.4,34.5-230.8,51.7-346.2c3.2-21.2,12.9-29.9,34.2-30.4c13.3-0.3,26.6-0.4,39.9,0
		c18.2,0.5,28.5,8,33.1,25.5c19,72.1,37.5,144.4,56.2,217c4.5-16.1,43.5-152.1,59.2-210.2c7-26.1,15.3-32.4,42.2-32.5
		c10.9,0,21.9-0.3,32.8,0c20.9,0.6,30.7,8.5,33.8,29c12.2,82.1,24.1,164.3,36,246.4c5.1,34.7,9.5,69.6,15.2,104.2
		c1.5,9-1,10.2-8.9,10.1c-20.4-0.5-40.9-0.7-61.3,0.1c-9.2,0.3-12.2-2.7-13.3-11.6C-333.4,650.4-356.3,498-357,492
		c-16.6,54.4-62.6,197.3-62.6,197.3l-81.7-0.2C-501.4,689.2-562.9,495.6-563.6,493.9z"/>
	<path d="M605.6,542.3c0,23.8-0.5,47.5,0.2,71.2c0.6,21.3,8.8,39.9,29.5,48.1c22.8,9.1,46.6,9.7,67.9-5.4
		c12.1-8.5,21.7-38.7,17.9-51.9c-1.5-5.3-5.7-4-9.2-4.1c-11.9-0.1-23.8-0.5-35.6,0.1c-8.3,0.5-9.3-2.8-7.9-9.8
		c3.2-16.8,6.2-33.6,8.8-50.4c1-6.1,4-7.5,9.7-7.5c36.6,0.2,73.2,0.1,109.8,0.1c4.7,0,8.5,0.1,8.3,6.5c-0.9,34.6,2.7,69.5-3.7,103.8
		c-9.3,50.1-39.7,80.3-89.3,91.3c-36.5,8.1-72.8,7.1-108.3-4.1c-48.8-15.4-75.8-50.4-79.9-100.1c-4.9-59.2-4.2-118.7-0.2-177.9
		c3.5-51.3,36.7-89.5,86.5-102.6c36-9.5,72.4-9.6,108.5-0.2c48.4,12.6,75.9,47.8,81.6,102.7c3,29.3,3,29.3-26.1,29.3
		c-15.7,0-31.4-0.3-47,0.1c-7.4,0.2-10.5-2.2-9.7-9.8c0.4-3.7,0-7.6-0.3-11.4c-2.3-28.2-15.4-41.8-43.5-45.2
		c-40.5-4.9-66.4,16.7-67.7,57.2C605,495.7,605.6,519,605.6,542.3C605.6,542.3,605.6,542.3,605.6,542.3z"/>
	<path class="st7" d="M1320.2,736.2c-38.5,0-77,0-115.4,0c-5.8,0-11.4,0.9-11.1-8.2c1.2-29.9-1.6-59.8,1.9-89.6
		c4.7-40.7,26.5-69,62.3-87.5c27.7-14.3,57.9-23.8,83.4-42.3c23.2-16.9,30.8-38.7,23.3-66.2c-4.6-17.1-14.8-28.5-32.8-31.2
		c-20.7-3.1-38.1,5-47.7,21c-8.2,13.6-9.5,28.7-9.9,43.9c-0.2,7.6-2.8,9.5-10.1,9.4c-21.8-0.5-43.7-0.2-65.6-0.1
		c-5.1,0-9.2,0.1-9.2-7.1c0-41.1,7.6-79.2,40.1-108.3c10.8-9.7,23.4-16.4,36.9-20.6c33.3-10.5,67.4-12.2,101.3-4.5
		c62.3,14.2,97.4,70.9,86.7,136.6c-7.2,44.3-34.1,72.9-72,92.9c-22.2,11.7-45.4,21.3-67.6,32.9c-18.8,9.8-32.8,23.9-34.7,46.9
		c-0.8,9.9,1.8,13.1,12.1,13c51.3-0.5,102.6-0.1,153.9-0.4c8.7,0,12.2,0.3,10.2,11.4c-2.6,14.5-4.9,29.8-7.7,44.8
		c-1.9,10.2-5.1,13.8-16,13.6C1395.2,735.7,1357.7,736.2,1320.2,736.2z"/>
	<path class="st7" d="M1617.4,736.2c-37.5,0-75-0.3-112.6,0.2c-9.4,0.1-13.6-1.4-12.9-12.1c1.8-31.2-2.5-62.6,2.8-93.8
		c6.4-37.6,28.5-63,61.7-80c25.7-13.2,53.3-22.4,77.6-38.4c17-11.2,29.2-25.1,31.1-46.6c3.6-40.2-27-65.7-62.6-51.3
		c-22.1,8.9-27.3,28.8-29.8,49.5c-2.6,21.4-2.1,21.5-23.6,21.5c-17.6,0-35.1,0-52.7,0c-4.7,0-9.6,0.9-9.5-6.7
		c0.6-39.9,7.3-77.4,38.1-106.5c11.3-10.7,24.5-18.1,39-22.7c33.2-10.6,67.3-12.3,101.2-4.7c58.4,13,92.6,62.6,88.6,123.2
		c-3.5,52.2-32.6,85.3-76.4,108.1c-21.4,11.1-43.7,20.4-65.1,31.5c-18.4,9.6-32,23.5-34.2,45.8c-0.9,9.4,0.1,14.1,12.2,13.9
		c51.3-0.9,102.6-0.1,153.9-0.6c10.1-0.1,12.2,2.9,10.3,12.1c-3.1,15.3-6,30.7-8.1,46.2c-1.2,8.7-4.2,11.8-13.5,11.6
		C1694.3,735.8,1655.9,736.2,1617.4,736.2z"/>
	<path d="M834.3,658.8c0-19.5-0.1-38.9,0-58.4c0.3-47.6,21-68.1,69-68.5c21.8-0.2,43.7,0.3,65.5-0.5c33-1.3,47.2-15.5,49.6-48.2
		c0.3-4.2,0.4-8.5,0.2-12.8c-1.6-36.6-15.1-55.5-52.1-55.5c-18.2,0-49-2.4-49,7.4c0,19.9-0.1,29.7-0.1,40.6
		c0,19.1-0.2,18.7-18.9,18.7c-18.5,0-37.1-0.2-55.6,0.1c-6.8,0.1-9-1.9-8.9-8.9c0.3-38.9,0.2-76.9,0-115.8c0-6.2,0.8-9.7,8.4-9.5
		c58,0,110.2-4.5,165,4.2c56.3,8.9,90.4,46,94.1,102.7c1.6,24.2,1.5,48.3-5.3,72c-9.7,34-32.4,54.7-65.5,65
		c-29.9,9.3-60.6,10.2-91.6,10.1c-17.1-0.1-21.8,4.6-21.9,21.9c-0.2,33.7-0.4,67.4,0.2,101.2c0.2,9.3-2.4,12.3-11.9,11.9
		c-20.4-0.7-40.9-0.6-61.3,0c-8.3,0.2-10.5-2.6-10.3-10.6C834.6,703.5,834.3,681.1,834.3,658.8z"/>
	<path d="M84.3,589.4c0-34.4-0.4-62.4,0.2-90.4c0.2-9.4-1.7-13.1-12.1-13.1c-11.2,0-21.2,0.6-30.7-1.3c-5.5-1.1-3.4-21.8-3.4-32.7
		c-0.1-19.9,0-19.9,20.3-19.9c26.2,0,25.8-1.6,25.8-25.6c0-11.6-0.2-23-0.2-35.6c0-9.3,3.3-10.2,10.8-10.2c19.7,0,38.5-0.1,58.4-0.1
		c9.2,0,10.7,3.6,10.7,11.5c0,17.1-0.3,34.3-0.3,51.2c0,6.9,2,8.9,8.8,8.9c16.7,0,30.2-0.3,45.6-0.3c7.7,0,8.4,1.8,7.4,8.9
		c-1.4,11.1-2.4,30.9-11,39.5c-8.2,8.3-27.2,5.8-40.8,5.6c-8.6-0.1-10.1,3.1-10,10.8c0.3,50.3,0,100.6,0.2,150.9
		c0.1,22.5,4.7,27.8,27.9,27.8c11.2,0,29.6-0.2,32,2.9c2,2.6-2.1,20.6-4.1,31.2c-5.8,29.9-5.9,30-36,29.8
		c-16.6-0.1-33.2,1.1-49.6-2.8c-28.4-6.8-44-23.6-47.9-52.7C81.9,650.4,85.8,616.7,84.3,589.4z"/>
	<path d="M1169.3,368.6c-2.8,6-8.4,18.5-8.4,18.5h-6c0,0-5.7-11.2-9.6-18.8c-1,6-1.9,11.7-2.8,17.3c-1.2,7.3-0.5,6.5-5.5,6.5
		c-5.2,0-5.1,0.8-3.8-7.1c1.7-10.8,3.3-21.4,5-32.2c1.1-7,0.7-6.4,6.1-6.4c6.1,0,5.4-0.5,7.3,5.3c2.1,6.4,4.2,13,6.4,19.7
		c2.5-7.7,4.2-13.1,6.3-19.7c1.9-5.9,1.1-5.4,7.2-5.4c6.3,0,5.7-0.5,6.7,6c1.7,11.4,3.8,25.6,4.8,33.7c0.8,6.6,1.3,5.9-3.6,5.9
		c-5.9,0-5.3,0.6-6.1-4.1C1172.1,381.5,1171,375.2,1169.3,368.6z"/>
	<path d="M1129.6,350.6c0,4.6,0.8,4.1-7,4.1c-3.8,0-3.4,4.6-3.4,8.2c0,5.1,0,17.7,0,22.1c0,7.8,0.5,7.1-4.4,7.1
		c-5,0-4.6,0.5-4.6-7.1c0-6.7,0.1-15.5,0-22.1c-0.1-3.5,0.5-8.2-3.6-8.2c-7.6,0-7,0.6-7-4.1c0-4.1-0.2-4.1,2.1-4.1
		c6.6,0,19.4,0,26,0C1130,346.4,1129.6,346,1129.6,350.6z"/>
	<path d="M490.8,584.8c0.1,0,0.1,0,0.2,0c0-17.1,0.2-34.2,0-51.3c-0.7-52.5-28.8-88.7-79.1-100.7c-23.2-5.6-47-5.9-70.6-1.9
		c-56,9.5-86.4,40.4-89.9,96.7c-2.5,40.7-3.4,81.7,0.9,122.3c4.2,39.6,25.7,67.6,63.9,81c26.9,9.4,54.7,10.8,82.8,6.4
		c56.1-8.8,86.5-39.8,91.5-95.5C492.3,622.9,490.8,603.8,490.8,584.8z M409.2,645.1c-4,21.7-15.7,31.4-38.6,31.2
		c-23.1-0.1-36.3-9.7-38.2-31.4c-3.6-40.7-3.4-81.6-0.2-122.3c1.6-20,15.9-30.9,37.2-31.3c22.5-0.5,35.8,9.8,39.8,30.2
		c2,10.3,2.1,20.8,2,31.2c-0.1,10,0,20,0,33.1C410.2,603.4,413,624.3,409.2,645.1z"/>
	<path d="M24.4,584.2c-0.1,0-0.3,0-0.4,0c0-19.9,1-39.9-0.2-59.8c-2.7-46.6-29.5-78.5-74.6-90.5c-25.2-6.7-50.6-7-76.2-2.8
		c-51.2,8.6-81.9,37.4-87.2,88.5c-4.4,42.8-3.9,86.4,0,129.3c3.9,42.8,28.6,71.4,69.9,83.9c29.1,8.8,59,9.2,88.7,2.3
		c51.2-11.9,79.2-47.2,79.8-99.7C24.5,618.4,24.4,601.3,24.4,584.2z M-56.3,638.2c-2.2,33-30.1,48.2-60.3,33.9
		c-9.5-4.5-13.9-12.3-16.4-21.8c-4.4-16.8-2.9-34-2.7-51c0.3-25.1-2.3-50.4,1.6-75.3c3.7-23.8,16.6-33.5,41.6-32.5
		c21.7,0.8,34.7,12.9,36.2,35.8c1.2,18.4,0.2,37,0.2,55.5C-56,601.2-55,619.8-56.3,638.2z"/>
</g>
<image style="display:none;overflow:visible;enable-background:new    ;" width="1042" height="521" xlink:href="FD82CDC1.jpeg"  transform="matrix(0.9981 0 0 0.9981 20 -300.8571)">
</image>
</svg>
