<?xml version="1.0" encoding="utf-8"?>
<!-- Generator: Adobe Illustrator 26.0.1, SVG Export Plug-In . SVG Version: 6.00 Build 0)  -->
<svg version="1.1" id="Layer_1" xmlns="http://www.w3.org/2000/svg" xmlns:xlink="http://www.w3.org/1999/xlink" x="0px" y="0px"
	 viewBox="0 0 512 63.5" style="enable-background:new 0 0 512 63.5;" xml:space="preserve">
<style type="text/css">
	.st0{fill:#38BDF8;}
</style>
<path class="st0" d="M52.9,0C38.8,0,30,7.1,26.5,21.2c5.3-7.1,11.5-9.7,18.5-7.9c4,1,6.9,3.9,10.1,7.2c5.2,5.3,11.2,11.4,24.3,11.4
	c14.1,0,22.9-7.1,26.4-21.2c-5.3,7.1-11.5,9.7-18.5,7.9c-4-1-6.9-3.9-10.1-7.2C72,6.1,66,0,52.9,0z M26.5,31.7
	C12.3,31.7,3.5,38.8,0,52.9c5.3-7.1,11.5-9.7,18.5-7.9c4,1,6.9,3.9,10.1,7.2c5.2,5.3,11.2,11.4,24.3,11.4c14.1,0,22.9-7.1,26.4-21.2
	c-5.3,7.1-11.5,9.7-18.5,7.9c-4-1-6.9-3.9-10.1-7.2C45.6,37.8,39.6,31.7,26.5,31.7z"/>
<path class="st0" d="M158.7,26.7h-9.2v17.9c0,4.8,3.1,4.7,9.2,4.4v7.2c-12.4,1.5-17.3-1.9-17.3-11.6V26.7h-6.9V19h6.9V9l8-2.4V19
	h9.2L158.7,26.7z M193.9,19h8v37.2h-8v-5.4c-2.8,3.9-7.2,6.3-13,6.3c-10.1,0-18.5-8.6-18.5-19.6c0-11.1,8.4-19.6,18.5-19.6
	c5.8,0,10.2,2.4,13,6.3V19z M182.1,49.5c6.7,0,11.8-5,11.8-11.9s-5.1-11.9-11.8-11.9s-11.8,5-11.8,11.9S175.4,49.5,182.1,49.5
	L182.1,49.5z M215.3,13.4c-2.8,0-5.1-2.4-5.1-5.1c0-2.8,2.3-5.1,5.1-5.1c2.8,0,5.1,2.3,5.1,5.1C220.5,11,218.1,13.4,215.3,13.4z
	 M211.3,56.2V19h8v37.2L211.3,56.2z M228.6,56.2V1.9h8v54.3L228.6,56.2z M288.9,19h8.5l-11.7,37.2h-7.9L270,31.1l-7.8,25.1h-7.9
	L242.6,19h8.5l7.2,25.7l7.8-25.7h7.7l7.7,25.7L288.9,19z M307.3,13.4c-2.8,0-5.1-2.4-5.1-5.1c0-2.8,2.3-5.1,5.1-5.1
	c2.8,0,5.1,2.3,5.1,5.1C312.5,11,310.2,13.4,307.3,13.4z M303.3,56.2V19h8v37.2L303.3,56.2z M340.2,18c8.3,0,14.3,5.7,14.3,15.3
	v22.9h-8v-22c0-5.7-3.3-8.6-8.3-8.6c-5.3,0-9.5,3.1-9.5,10.7v20h-8V19h8v4.8C331.2,19.9,335.2,18,340.2,18L340.2,18z M392.7,4.1h8
	v52.1h-8v-5.4c-2.8,3.9-7.2,6.3-13,6.3c-10.1,0-18.5-8.6-18.5-19.6c0-11.1,8.4-19.6,18.5-19.6c5.8,0,10.2,2.4,13,6.3V4.1z
	 M380.9,49.5c6.7,0,11.8-5,11.8-11.9s-5.1-11.9-11.8-11.9s-11.8,5-11.8,11.9S374.2,49.5,380.9,49.5z M427.6,57.2
	c-11.2,0-19.7-8.6-19.7-19.6c0-11.1,8.4-19.6,19.7-19.6c7.3,0,13.6,3.8,16.6,9.6l-6.9,4c-1.6-3.5-5.3-5.7-9.8-5.7
	c-6.6,0-11.5,5-11.5,11.7s5,11.7,11.5,11.7c4.5,0,8.1-2.3,9.9-5.7l6.9,3.9C441.3,53.4,434.9,57.2,427.6,57.2L427.6,57.2z
	 M457.7,29.3c0,6.8,20,2.7,20,16.5c0,7.4-6.5,11.5-14.5,11.5c-7.4,0-12.8-3.3-15.2-8.7l6.9-4c1.2,3.3,4.2,5.4,8.3,5.4
	c3.6,0,6.3-1.2,6.3-4.2c0-6.6-20-2.9-20-16.2c0-7,6-11.4,13.6-11.4c6.1,0,11.2,2.8,13.8,7.7l-6.8,3.8c-1.3-2.9-3.9-4.2-7-4.2
	C460.2,25.3,457.7,26.6,457.7,29.3L457.7,29.3z M492,29.3c0,6.8,20,2.7,20,16.5c0,7.4-6.5,11.5-14.5,11.5c-7.4,0-12.8-3.3-15.2-8.7
	l6.9-4c1.2,3.3,4.2,5.4,8.3,5.4c3.6,0,6.3-1.2,6.3-4.2c0-6.6-20-2.9-20-16.2c0-7,6-11.4,13.6-11.4c6.1,0,11.2,2.8,13.8,7.7l-6.8,3.8
	c-1.3-2.9-3.9-4.2-7-4.2C494.5,25.3,492,26.6,492,29.3L492,29.3z"/>
</svg>
